<svg width="14" height="14" viewBox="0 0 14 14" fill="none" xmlns="http://www.w3.org/2000/svg">
<g clip-path="url(#clip0_10087_142124)">
<path d="M4.45521 0C3.395 0 2.51563 0.863333 2.49521 1.92354L2.485 2.48354L1.92354 2.49521C0.863333 2.51563 0 3.395 0 4.45521C0 5.51542 0.861875 6.39187 1.92208 6.41375L2.04604 6.41667H3.88062C3.9725 5.92375 4.17958 5.47312 4.46979 5.08812L3.89521 4.51354C3.55542 4.62729 3.16458 4.54854 2.89333 4.27729C2.51125 3.89521 2.51125 3.27542 2.89333 2.89333C3.27542 2.51125 3.89521 2.51125 4.27729 2.89333C4.54854 3.16458 4.62583 3.55396 4.51354 3.89521L5.08812 4.46979C5.47167 4.17958 5.92375 3.9725 6.41521 3.88062V1.92062C6.39333 0.861875 5.51396 0 4.45521 0Z" fill="#2D62B6"/>
<path d="M12.08 6.41375L11.9546 6.41667H10.12C10.0282 5.92521 9.82253 5.47312 9.53086 5.08812L10.1054 4.51354C10.4452 4.62729 10.8361 4.54854 11.1073 4.27729C11.4894 3.89521 11.4894 3.27542 11.1073 2.89333C10.7252 2.51125 10.1054 2.51125 9.72336 2.89333C9.45211 3.16458 9.37482 3.55396 9.48711 3.89521L8.91253 4.46979C8.52753 4.17812 8.0769 3.9725 7.58398 3.88062V2.01833L7.5869 1.92062C7.60878 0.861875 8.48815 0 9.5469 0C10.6057 0 11.485 0.863333 11.5069 1.92354L11.5171 2.48354L12.0786 2.49521C13.1388 2.51563 14.0007 3.395 14.0007 4.45375C14.0007 5.5125 13.1388 6.39187 12.08 6.41375Z" fill="#00758C"/>
<path d="M12.0786 11.504L11.5171 11.5157L11.5069 12.0757C11.485 13.1359 10.6057 13.9992 9.5469 13.9992C8.48815 13.9992 7.60878 13.1373 7.5869 12.0786L7.58398 11.9604V10.1186C8.0769 10.0267 8.52753 9.81961 8.91253 9.5294L9.48711 10.104C9.37336 10.4438 9.45211 10.8346 9.72336 11.1059C10.1054 11.4879 10.7252 11.4879 11.1073 11.1059C11.4894 10.7238 11.4894 10.104 11.1073 9.7219C10.8361 9.45065 10.4467 9.37336 10.1054 9.48565L9.53086 8.91107C9.82107 8.52753 10.0282 8.07544 10.12 7.58398H12.08C13.1388 7.60732 14.0007 8.48523 14.0007 9.54398C14.0007 10.6027 13.1388 11.4836 12.0786 11.504Z" fill="#2D62B6"/>
<path d="M5.08812 9.53086L4.51354 10.1054C4.62729 10.4452 4.54854 10.8361 4.27729 11.1073C3.89521 11.4894 3.27542 11.4894 2.89333 11.1073C2.51125 10.7252 2.51125 10.1054 2.89333 9.72336C3.16458 9.45211 3.55396 9.37482 3.89521 9.48711L4.46979 8.91253C4.17812 8.52753 3.9725 8.0769 3.88062 7.58398H2.02417L1.92208 7.5869C0.861875 7.60878 0 8.48815 0 9.5469C0 10.6057 0.863333 11.485 1.92354 11.5054L2.485 11.5171L2.49521 12.0771C2.51563 13.1373 3.395 14.0007 4.45521 14.0007C5.51542 14.0007 6.39333 13.1388 6.41521 12.08V11.9546L6.41667 10.12C5.92521 10.0282 5.47312 9.82253 5.08812 9.53086Z" fill="#00758C"/>
<path d="M7.00081 9.00747C8.10906 9.00747 9.00747 8.10906 9.00747 7.00081C9.00747 5.89256 8.10906 4.99414 7.00081 4.99414C5.89256 4.99414 4.99414 5.89256 4.99414 7.00081C4.99414 8.10906 5.89256 9.00747 7.00081 9.00747Z" fill="#F9A814"/>
</g>
<defs>
<clipPath id="clip0_10087_142124">
<rect width="14" height="14" fill="white"/>
</clipPath>
</defs>
</svg>
