<?xml version="1.0" encoding="UTF-8"?>
<svg id="Layer_2" data-name="Layer 2" xmlns="http://www.w3.org/2000/svg" viewBox="0 0 96 96">
  <defs>
    <style>
      .cls-1 {
        fill: #3390a3;
      }

      .cls-2 {
        fill: #3e75ce;
      }

      .cls-3 {
        fill: #fab73c;
      }
    </style>
  </defs>
  <g id="Layer_1-2" data-name="Layer 1">
    <g id="marigold-logo-tag-hybrid">
      <path class="cls-2" d="M30.55,0c-7.27,0-13.3,5.92-13.44,13.19l-.07,3.84-3.85.08c-7.27.14-13.19,6.17-13.19,13.44s5.91,13.28,13.18,13.43l.85.02h12.58c.63-3.38,2.05-6.47,4.04-9.11l-3.94-3.94c-2.33.78-5.01.24-6.87-1.62-2.62-2.62-2.62-6.87,0-9.49,2.62-2.62,6.87-2.62,9.49,0,1.86,1.86,2.39,4.53,1.62,6.87l3.94,3.94c2.63-1.99,5.73-3.41,9.1-4.04v-13.44c-.15-7.26-6.18-13.17-13.44-13.17Z"/>
      <path class="cls-1" d="M34.89,65.35l-3.94,3.94c.78,2.33.24,5.01-1.62,6.87-2.62,2.62-6.87,2.62-9.49,0-2.62-2.62-2.62-6.87,0-9.49,1.86-1.86,4.53-2.39,6.87-1.62l3.94-3.94c-2-2.64-3.41-5.73-4.04-9.11h-12.73l-.7.02c-7.27.15-13.18,6.18-13.18,13.44s5.92,13.29,13.19,13.43l3.85.08.07,3.84c.14,7.27,6.17,13.19,13.44,13.19s13.29-5.91,13.44-13.17v-.86s.01-12.58.01-12.58c-3.37-.63-6.47-2.04-9.11-4.04Z"/>
      <circle class="cls-3" cx="48" cy="48" r="13.76"/>
    </g>
  </g>
</svg>